<mxfile host="app.diagrams.net" modified="2022-02-14T11:43:29.101Z" agent="5.0 (Windows NT 10.0; Win64; x64) AppleWebKit/537.36 (KHTML, like Gecko) Chrome/98.0.4758.82 Safari/537.36" etag="leVJ0HgH6D_zaATfGlYO" version="16.5.6" type="github">
  <diagram id="C5RBs43oDa-KdzZeNtuy" name="Page-1">
    <mxGraphModel dx="1357" dy="949" grid="0" gridSize="10" guides="1" tooltips="1" connect="1" arrows="1" fold="1" page="1" pageScale="1" pageWidth="1169" pageHeight="1654" math="0" shadow="0">
      <root>
        <mxCell id="WIyWlLk6GJQsqaUBKTNV-0" />
        <mxCell id="WIyWlLk6GJQsqaUBKTNV-1" parent="WIyWlLk6GJQsqaUBKTNV-0" />
        <mxCell id="mW-TfA6SUVQMe-zbk1Tz-4" value="&lt;div&gt;&lt;span&gt;&lt;b&gt;Edge devices &amp;amp;&amp;nbsp;&lt;/b&gt;&lt;/span&gt;&lt;/div&gt;&lt;div&gt;&lt;span&gt;&lt;b&gt;cameras&amp;nbsp; &amp;nbsp; &amp;nbsp;&amp;nbsp;&lt;/b&gt;&lt;/span&gt;&lt;/div&gt;" style="rounded=0;whiteSpace=wrap;html=1;sketch=1;fillColor=#d5e8d4;strokeColor=#82b366;align=right;" vertex="1" parent="WIyWlLk6GJQsqaUBKTNV-1">
          <mxGeometry x="30" y="250" width="400" height="60" as="geometry" />
        </mxCell>
        <mxCell id="mW-TfA6SUVQMe-zbk1Tz-0" value="Subject position" style="shape=image;verticalLabelPosition=bottom;verticalAlign=top;aspect=fixed;imageAspect=0;image=data:image/png,iVBORw0KGgoAAAANSUhEUgAAASkAAAD6CAYAAAD9RLG3AAAABGdBTUEAALGPC/xhBQAAAAlwSFlzAAAScwAAEnMBjCK5BwAAFOpJREFUeF7tnb9rIt37hr9/xqYIpEtl8SZICkFIN6WgCFMoaCVapHI6QSyswpRB0k1jEVLFwiYIKVIEIY2SbsqpVosggWQZ5v7OMe6Pz76zrybrzDnO3Bdc2+3uMD7enjlzznP+D4QQojAMKUKI0jCkCCFKw5AihCgNQ4oQojQMKUKI0jCkCCFKw5AihCgNQ4oQojQMKUKI0jCkCCFKw5AihCgNQ4oQojQMKUKI0jCkCCFKw5AihCgNQ4oQojQMKUKI0jCkCCFKw5AihCgNQ4oQojQMKWVxAe8FnvtT93WGt5mDuWPTrehgsZj59/V/77P/x+ozICrAkFIFP5DeA+gJ9t0AN9dX6Fs9XJ530WkLW6jrVWRPdaQyRboVdaS1KvKN1uoed2FeWP59v/Lv/wCT6dMyyN4WfnDBe/+cSOQwpGThzTCf3uLmwkTHMJDPlVZfnAIOT76bx5d/aNT+vP+FH2GWzdVQNkxcXt/CdmarD5FEAUMqSlw/mMaD5eio2ThbBlP6OPiLQtV0/7QETT9D3ejCtPzRlh9YHGOFC0MqCvxRk3N3BdM4Q/oouPjpbrp/eobm+RUebI6uwoIhFSauA3vYQ1PXcRBQ4DQ+7h0VoTW6uBnbHFltGYZUGLhf4SzDqYpsphBY1DSeHvqPg3mjh5H9dVUM5G9hSG0V1x883aLfriEVUMA0Oe5lamheDGDPvq1qg3wWhtTWcDC57qKsFfloR396XIN556xqhHwGhtRf4y1HT5dGFekT/xc0qFBpoj3IVNG0bjF/5WzVZ2BI/RUvmN9ZaOaCi5PSnxagGRYmM7EwlHwEhtSnsTFqV5HiOif6AcWoqjPk499HYEh9As8eoJPTccg1T/QT7p/o0NoDzLlFcCMYUh/Es6/8xzsuK6B/awF54woOg2otDKkP4Dl+QJ0GFRylnzPtB9Wc8+n/CUNqQzzbQj3Dt3d0+6YbHFH9FwypTVg94jGgaDgWoXFE9UcYUmt5wiWXGNAI1C7sVc2RX2FI/ScORu0aOxfQSNw/raHD1en/giH1Rzy4YxN5roOiEXqgm5gsOEH1KwypPzEboKMXOQ9FI7YArXGF+aoMCUPqD/iPeYbOgKKS1NHkqvQfMKT+xQuc6y7y7C9OJZrSuxjZbPMiYEj9zuIWHY3roahsC8i2b/G2Ksskw5D6H8QoqoV0YNFQGq17Wgs3NrsmMKR+RUyW+6OooIKhVIbZ9gCLVXkmFYbUD1w41hkOAwqFUmmenKGf8D0zDKnvvD6iXykGFwql0iyibD0m+gQahtQSF/NhF/lMUJFQKtflm75ZckdTDKklNm70IvYDCoRS6R75o6nr5K6bYkgJZleoK7wuKpUp0kgMvv8qeNgYJHY5AkMK37AYtpANKAwp+r+aWf0MzXYP/eEtJtMnzB2bRuIT7PEtbqweOsYZNE2d0bVYjjBK6Bl+DCn3Ef1GSYli3Dupon5xhYkzW10ckYb3Fc74CmajqsYb36MS6gmdQGdIORby0luxiOOOenhwnlcXRdThGc5dD3UFmh4e6FYiNx4nPKRczK0zuScOH5dQPr+CzfYcCuPibeqPqiolybVyhhsneWOpZIeU7LVRR+9tY9nfejdYnhQkdZ7qfc1U0solwSHl4W3sD+MlboM5rFhwePT2DuHBnVooS3wTnG30MFkkq2YSHFIvmJxX5f0qntRwOeXm0d3jBfZFTd5j31EV5jhZdZPgkLIlHrCgo249JW7YHhvENEFDXlNEzUrWgQ3JDSnbkte//NjAKOlb23ect6G8Fy4HYpogQU98CQ2pGSaWIa1vVNpgM7OdZzGQdpr13qmB/jg5a+mSGVKLW5h6IbAAwvZAa6E/5Xqo3efZH4y3kJUyGi8if56cH7pEhpR715W2DYZHascFb7kkQRy9H/Q5h67WxeR1dSkxJ4Eh9SzxrV4h0bvZ44eDm0rQ5xyBx+ItXzJG5MkLqZm8R70vRzX0E7hiOL54mF/I+8ETj3xJWDKVsJBysZDY3C7d6MFOyBA9KbjTHuqSJtCT0gwvYSFlo68Hf+Che1RCc2gnchd7rHFtjIyStDVTSZg+SFZILQbymttlWlwbFVMWQwOpoM88ApPQDC9BIeXi7c6EJmkBZ5I7K8Ye/8evLKmuDnImJjHvoJGckPL8Yfn5maRfPB3162RtZUgWNm4aesDnHr57mTOYw3jXVnJCyrmSNsF5qJt4cHiuf3z5hrkYpUuaShBr7+LcDC8xIbWwatImN9PtW24mjjuvt+hI+hH88k8NNzHeJZOQkHIwMuQMx8UWhvqQPcvjzwyjhqT1d//oaA7j+5YvESElGpU1ZbVlOTES2fI1ebiYX8s7pj/OHV4TEFLfYJ/XkJYyX1BEvu0XDzMqEYi9fB1JuxkOT0UTxXjOeyYgpJ7kNbdLYBfFZCNzX2ge+Zg2w4t/SMk8nfi0iwlnzBOFN+5K61OWalwhjuuFYx5SL5gPu8jKOFfvWJwEw7d6ieP1Fs1cUUrXzn2ti5ETv5F7vEPKfcRloyRlMnNfM3CZoO6J5DszTC4MpGX8MJ6UUL+I3ynH8Q6paU/eNhjRh5rDqETi2fKOvTrI9RC3xQgxDqn3Xj+yFnBmzx9X10ESh/cIU9Z5jjHsWRbfkHp9kraf6suxjk5CuiaSIJ4xaeuSTpMR+0SfYvXIF9uQehvL63iQrph4YFuWRCM6bpQlbZM50EVnhNWFxICYhtTL8pcs6AMM3yLqCTyvn/zG8gDRYkB9RKEYycfnLV88Q0rmnMA/1diu/CUfQex04JzoNohhSHnLvtN5SW9X9jUTNodRxMcbm3LW6PkeVkQ//XjMTMUwpBw8nNekNLfbO6miacVr0pL8Be4T+kZVzqbjTA3mXTwWI8QvpBa30o6/Psh1MbK5V4985wXOsCvvBU5M+pjFLqSWQ+yADywKD2PeIZF8AudK2sLOLzGZeohZSH2DLe2wRjFZ+bS6DkK+8whTVsfOo3i8xIlXSDkDaacTi4b4fKtH/o344ZQzR/p+yvEA8x2fJI1RSHlYXMs6DaYATTS341s9EsCyGV5OUmvhjIGb2W6nVIxC6hkPhqRCOCqhE+Me0+QvEcepSTvluIDm3W6/zIlPSC0kntZx2sJox3+tSJj4o3yJpxxn27c7fTBtTELqvbmdrAWcKWMQy46IZIuIDrGZ4PoJW3Hu4y43w4tHSHlPuPGH03J2nYu3ere/hJQYUVH63RXOAB1ZW7WOq2ju8Ana8Qip14G8PuYrDzMlaLkq8nqN0l+sQtNKSPn1KWsfn/CwsbsLO2MQUuKtnrznfUp3woyxs/OmOx5SLhZjC3Vpx1tTujumGxYms90bT+1oSM3gjK9gGrIO/aR0NxWHiDYvrjCxd+eQkB0LqRe8Obfot2vQTuUcG0Tprrt3XEQ6V0PHusd8of4uid0JqcUjRhctaJJe41IaR1O5Fi6Hj0qvo9qBkBJN7Cw0pXXapDT+Zg0L9uvqK6cYioeUi7dxjxPjlEbgcmJ9od7EusIh5S1PfJG1ipzSJCpWp6t20oyiIeViMfQDivNPlEZuyg+qB4WWKigYUu8HKUjrZkgpRUqhgxyUCylxjj7noCiVb7qhRo80tULKe8RlLviGUUqjN38hvyW2QiE1g221kJV0sgal9N8e5FroT+WuTlcmpPiYR6maLh/7JE5PqRFSor1qu8ptLpSq6HEVnaG8flRKhJQ7NqFJOo6aUrre/ZyJiaQV6QqElOOPokqBN4ZSqooldCQd2y45pMSqcs5FUboLim0z9iL6ySnJITXDg6EH3hBKqWqK0dTz6rsbHXJDyr2XdwwVpfTDptv3/vNPtMgNqWkPWsCNoJSq6X6uBzvilJIYUmLxpoF0wI2glKrp3qmB/jTaRz55IfX6iH6lGHgjKKWqWkTdeoz0eCx5IeVcST8rj1L6cQ+NK8wjfOSTF1K2hTL36VG6cx5UrEi3yUgLKfeuxfkoSnfR0y4eIlx9Li2k5hdcZU7pblrCZYSLzyWFlIe5VZV6Nj6l9LNW0WdIqWAB2VwN5YaBptFFp/2LhoGyXoOm6ezcQD/msb6sq3zFr6tfa8q36ddVvSLqqhD8d1XxqOaHVHSTUgyp3/WLSGt0cWkNMJk+Yb549q9WfCC/6D3jzXmCfTdA/7yFck7HIbs40P9w/8Svq0oLpl9XD6u6+p+aErqruhqLuuqi7teVkj+CDCk57mWqKLd7GE2/rq5xU/wP69WBPeyhmSvwEZb+ZgGaIerKged98IvtzZZ11alUkQr8tyXJkIrelP5+1PTC/Zslav54a/Z+FHye+xGpb/pHXf3NF9r9UVeaKke8MaSiVZwxNrK3ucz/q//rZ6Ks+rwCDdECshVRV9vsDf4MR5WzKBlS0SkCKpzTWkWfrB4PN02oKb3n11U4X2IlTvVmSEXjgdbCTagbJd83UGc5oZ4o9/26Cvd0lef3U5Vk1hVDKnz3M9XlJsnQb7P3CFMLvgYaT7Xzx9WHHyLuI/qNKlKygoohFb7LI6QX0ezjfrtrQeNG6kR4mOviIZTpg99xl9MJZVnTCQypsNXRHEZ42KFrY2SUpM+/0bAt+XVlhz86/8HMrytJrY4YUiEb8eZIwduwpdY6F7p9M62IRlE/ce+6cjbpM6TCtIB8exBpL5wlswF7Z8Xcw8YAb6uPOzKcATq6hKUuDKkQPamhM3yKtKvgEvcRl3rA9dDYmI/iRczvvD5h1K7hMOB6QpUhFZ4y+jMv8Ww8yJo/oBFYROdOxjHkYjmChHMCGFLhuad1MZpF/nvnM4N9IWkOjkZgFZehro36Ex4Wwy6ygdcUogyp8NwXr4hlhZRVY0jFVfGllRVSd11oUa+XYkiF537OZEjR7cuQChWOpCKBIRVrJYcUH/dCQU5IfeHEOQ1FTpyHSbJCSixBuJa0BCEXcD00NuYv5CxBuGlXuQQhHCSF1JGO8vkAES8MBhZczBl3U8atlMWcZkXHfsD1hCpDKlz3TluRL0MQm4x5xmDM9esq2m0xYvmBpLpiSIWt2GAc4Xk83GCcEN83GEeH49eVHnAdEciQCl/RqiWszom/445FK+Hg66DxUrQMnkSyef298ytbtYSK3JASb2NE07vQJ9C9J/Qr7HWeHAsoW0+rDz9EXkXTO4lvixlS0XiQE+2Dw1zbMsNEvB5m++BEua8Z6I/Dratl++Dj4P8/EhlS0SmG5w+hPPb5w/E7c3kEEeeikqc44COsulr4dVWWfWQaQypKC8g2els+euj9SKs6DwpNsEVoDROjrY7UZ3CGPdRVOCqNIRW9qZyxOsRxdXmfRfT3OTfUOcSRSjXt15W5hf5ly8NBVaorhpQ8U3oXN+NP9Kl+tTG55oGgNEgxWjeXdfXhsFrWVVf+OXu/y5CS62GmBK3SgmkNMBk/wnEcLBYzvP3qzIZjP2JyN8DNeQvlXAkpriin/+GPuroe4GFZV3ZgXc1FXY0H6KtcVwwptTzI6EhrVeT12g81rYhDmW9X6M57cFJENvezpvJ6FdnTIlK7UFcMKUqp0jKkKKVKy5CilCotQ4pSqrQMKUqp0jKkKKVKy5CilCotQ4pSqrQMKUqp0jKkKKVKy5CilCotQ4pSqrQMKUqp0jKkKKVKy5CilCotQ4pSqrQMKUqp0jKkKKVKy5CilCotQ4pSqrQMKUqp0jKkKKVKy5CilCotQ4pSqrQMKUqp0jKkKKVKy5CilCotQ4pSqrQMKUqp0jKkKKVKy5CilCotQ4pSqrQMKUqp0jKkKKVKy5CilCotQ4pSqrQMKXVNGSb6w3vY43s83N1S+hfeYzK9x8gy0cwE15uyMqRUtYjmnbO6fkK2hYMHoxhQbwrLkFJVhhQJAddmSK2BIbWxIqRs/8oJ2SKvDKl1MKQ2liFFQoAhtRaG1MYypEgIMKTWwpDaWIYUCQGG1FoYUhvLkCIhwJBaC0NqYxlSJAQYUmthSG0sQ4qEAENqLQypjWVIkRBgSK2FIbWxDCkSAgyptTCkNpYhRUKAIbUWhtTGMqRICDCk1sKQ2liGFAkBhtRaGFIby5AiIcCQWgtDamMZUiQEGFJrYUhtLEOKhABDai0MqY1lSJEQYEithSG1sQwpEgIMqbUwpDaWIUVCgCG1FobUph5VYTKkyLYR7YPbVewH1ZyqMqTU9CDXQn86W10/IVvCm8G2WtCOg+tOSRlSanqo92C/uqvrJ2RbuHDHPeRPgutOSZMRUsDi+gwHQTdAUVMVCw4zioSAN7VQ3qWQOj7DTYQPFdJC6m1oIBV0AxQ11bhChD8eJEnYfkjt0gGhmRYeFqtrjwBpIYVpD+XTgBugqKnGABF+LiRJzAao79BIKl3pRfqDLS+kXu/RN6o788inXTytLpyQLeM9wtSC6045T6poWo+IcuZDXkjhBc61gXTQjVBOHZ2759V1E7JtnvHQ1gPqTkFPDdzYL6vrjgaJIeUzNZENuhGKmfKHt5MFJ6RIWHh4G/d2Y15KM2FH/FWQG1Kw0a8ovtr2WCzidFbXS0hYOHg4V336o4jytb263uiQHFL+b4g9QCcXdEMU8KiIvHHFpQckEjz7Ck29qOj6wQK09kDKd0F6SInFbPNhF5qKQ93TFkazb6vrJCRsvmExbCm5NCeV62Ik6ddagZASvPhBZSr1TH6gnfmPedwGQ6JGPPadIa3QNplUxcSDE+1k+a8oElKCZzjXJuq5QuCNisq9ozwOMzXOQxGJiKCqIXWSl7zx2H/Ea5i4seW+2VYopAQeXHsAsyLnuXw/U0X93H/u5h49Ih139V0oIeX/cAbVa7jqKC+/C/LfaisWUitcB/bQgtk2oIW9Kv2oCE030GxbmEgc0hISzAvmYwsdw0A+F/6PdzpnoHNhYTRV50lCzZD6jvsVc/seD9cWLs+7aBpd/8Nqod44Q7nyGQ3/77b8f8e3bcL0P4yb4T1s5ytcLoMiKvM6w3x6j9Hyu2Auvweijj//XTh7/y60379X4rswuruH48yU65mmdkj9kRd47if0+BhH4oZf00G1voG7wo6GFCEkKTCkCCFKw5AihCgNQ4oQojQMKUKI0jCkCCFKw5AihCgNQ4oQojQMKUKI0jCkCCFKw5AihCgNQ4oQojQMKUKI0jCkCCFKw5AihCgNQ4oQojQMKUKIwgD/D1QmJyRdvU1MAAAAAElFTkSuQmCC;sketch=1;fillColor=#21C0A5;strokeColor=#006658;fontColor=#5C5C5C;imageBorder=default;fontStyle=1;fontFamily=Verdana;" vertex="1" parent="WIyWlLk6GJQsqaUBKTNV-1">
          <mxGeometry x="162" y="340" width="130.68" height="110" as="geometry" />
        </mxCell>
        <mxCell id="mW-TfA6SUVQMe-zbk1Tz-1" value="" style="shape=image;verticalLabelPosition=bottom;verticalAlign=top;aspect=fixed;imageAspect=0;image=data:image/png,iVBORw0KGgoAAAANSUhEUgAAASEAAADyCAYAAAACwHMuAAAABGdBTUEAALGPC/xhBQAAAAlwSFlzAAAScwAAEnMBjCK5BwAAEiJJREFUeF7tnb9LI+njx79/xlkIdlYWpwQLIWA3ZSBBSKEQq6BFqqQLhBSpJKWIXRqLkCopbESwSCGCTYLdlNMlhQQhypD3Z6LZz+13b/ZjsmbmmTivF7xu79i9vZ1J5nXz43me+T8BABiECAGAUYgQABiFCAGAUYgQABiFCAGAUYgQABiFCAGAUYgQABiFCAGAUYgQABiFCAGAUYjQyjHxfPN+eNHEfdbrwNbQ+b6ORs/edr542+tt8/u2w3eDCK0E3sE3djS0H9W766jdaujyrKZiLi9r/0Bbe9/XRCqvk1JN9fOGt90d3T88ynEGcicE6btAhCLLi17trm4bdZ1kj5WcxmY3o82Z63+n9Vec3P5n2zencbKOlT6t6+q6K2fknSnBykKEooY70PChqctSQelUVpt+ByT+425WVrag4nlTPe8MifOj1YMIRYY3jfodLz55JXZ8Djb81A0r78WoI3swvX8EqwIRigSO7s8KSvgcWLi4a/sFXd45s30LUYcImWb8pNtKnsuuZbubV/X6Se5sN0N0IUImGdzoMpfVmt9BhEswq6PzG41muxuiCREyhdtV3QvQhu/Bg0tzxwvRWZcb1hGGCBnB0X3lOH6P2U25c6z63WC27yFqEKHQeVbvnHtAobub1+XD8+wzgChBhEJm0q/L8jtIMHDXUxeyuVMdOYhQmExsnoSZ9P2JmT37MCAqEKEQmfQvZO36HBwYmptZ72yIu9SRggiFhqPb0oHvgYFhmlXxmoGMUYIIhcJErw8XOrH8DgoM2+TphXoMHooMRCgUBrovZXkkHxW3vbMhHtlHBiIUBm5XxT2fgwGNuVVhAGNUIEJhYF/oiJnxkXIz15BDhSIBEQqcgexGSYlt/4MBzbhulXTV55IsChChoBl/zBHjflDEnM0pY+yieYhQwLh3ZW35HQRo3r2y7sezDwqMQYQC5U322SFLdUTWY9X7rMJoGiIUJONHXZ0yQDG6ZnXSYOEz0xChAGGAYvRl4KJ5iFBgPOu+csgN6ai7fagqS3wYhQgFhdtVdd/nS4+RM1F5nH1oYAIiFBROUyeMkl4Jt06bGs4+NggfIhQIL3Kua7IYJb0SbqRqunV4i6spiFAQuE+6Oj1kEftVcedQxcbT7MODsPkmEZp4B/5ArwNHQ8c26sj7M/QaZVlM01gpN1JlXT043ufn/7mGp/dnGA00idG8thWK0Jsm44FGzpPshxvdtppqNxq6mnpeV71SVrHkmcsruXegLWNmGJy4smZ8Ps8QtfI6mn6HPatnF7r88f2eftevb9Tre5EaDOS632uAZcQj5P3vYOzIeeiofV7WUepQW9xnwRi7sXcoK1fWZaujnu3I/QZnTNGM0ORZw35Hl5XC+1nN5m5GG97lDWcYiB+u72S842J69lRQ9bwj21ndsU4Ri9CbXqfxKZWUtg6IDuJcHiiZLanoxcgZrd6lWkQi5Mp1umqfeWc+XG4h/rGbVkn1VlfD8erMiItAhBz1zgvvi35x5oP4dafH0fp+SZcPq7Fom9kIubZuz3gZIGIg7uZVX4GXPRqL0MS50SUrDiIG63ZWJ+c3Gkb4KZqBCE302m+omDogQIhhuH2gdKkhO6KrSIYcIdcLUFPVLAt9IYarF6JKU/Yoejesw42Q01GRRb4QDZlRstKJ3KVZeBGaLnVaYpEvRKO+T9Z9jNSStiFF6Fm9szyzyhGj4E5e9QitJhlChN40vKsrveuzMxDRiFvZuu4H0RhdHXyEpi//sw44C0KMkjsHSkbk5Y8BR2j2CmS/nYCIRl3bn74K2/xlWaARmvQvlGadZcTIupW9kG34dCjACA10e5rx3XBEjIoZnVybnWMWXIQGN6qm/DYaEaOkdXajV4NjhwKK0JucVpl7QYgr4Np+WW3H3JOygCJk6yrrv8GIGD3TDXOz7YOJ0KijE8YFIa6Mm6cdvc4O37AJJEKvdzUlfTYUEaPpeqqunqFZ9gFEaKAeY4MQV8rpSoxXfTNPyZYfofGj2pW8tnw2FBGj6dpeXtWWmYmty4+Q01E1xfggxNUyI8vQMh9Lj9Ck31CaVyAjrpzruYYcA6dCS4/QqFVgsiriKrpTUNvAbaGlR2h4fuy/gYgYcY915cwO5BBZcoQmGjaOeX8Y4iq6nfciFP5NISKEiB8SIUQ0KhFCRKMSIUQ0KhFCRKMSIUQ0KhFCRKMSIUQ0KhFCRKMSIUQ0KhFCRKMSIUQ0KhFCRKMSIUQ0KhHCKLi5m9HW3oES+1klrcMPU8eyPNPZ/MyPf7Z+/LyV9X79gffvZbS54//74gpIhNCY21589g91VKrrqtXR/UNXtm1rNHD0Onr2PtUfX8zpjz/9vfvs/bzj/TpbTr+r3l1H7UZdxdyhErtprfv9tzC6EiEMz4ySuZKqZw2177pyHC8409hMpq8C/sqXcPrver/HNE5emIZ2V/ethuqVktIWLz+IvEQIg3R9x7vM2j/+ONu59s50Bs+zzywEJs8aemdKt+9nScdKeJdtG7wMIXoSIQzKrWzNC8+jhqPpmY5p3vTqTINUU3rP/8+LhiRCuFS3D5U+remy1dVwbOKVdp/hyvVi1D6v6SR7yP2jKEiEcBmuvd9kLqjeetQokvH5FS9Gg+lbewvczDYtEcKvur6XV7FxE9Ezn8+Ynhnd6Kp0rC3uF5mRCOFXTJxe6N55mX0Oq8yLhncXOtn3304MUCKEf+L6zoGsSlPOOPwvT3BM5NpNVVMHPEULUyKEi7q+V9Dlg4H39obFxFHvvMDlWVgSIVzE5PvlV4hjfYzx/HF5ZvnvB1yiRAjnMyOr1FBvsIo3n/8UV6OHCxVTjLoOVCKE85jMXcgez3Z3zHD7FzrihnVwEiH8TKvU9AIUpzOgX3H12m+oyKVZMBIh/L1xvAT7HW/epZkXIi7Nli8Rwt+5larrfjTbxfDO611NFnPPlisRQj83UmW1+9/4MfwfM5DdKstiEbXlSYTwV9f3jlVs2bN9C//CfVKbaR7Lkwjhr1pnN+Iq7BMGN6qm/PcfLigRwp/dTNXVi+mj+EVxH+pcli1DIoQ/XN8v6eo7T8dYOgP1GiUlfPYlLiARwh9aZ11vT8JCjLuqM37oaxIhfNc7C2rbUViGddV4kdPibOhLEiH86+8sT8O+wsRW+zTrs19xLokQJlJ12VyHfY1+XdZ+mu/gn0iEYu7udEzQE/eCvsps7NCG3z7G/y0Rirfr71MzSNDXmXxM6WAA4+ISoXibPOuK6alLYtxVlSdli0uEYuxuXnXGBS2Rge7P8tr029f4e4lQfE2eNmRzKbZEvEuyfoMlYReVCMXVjI4a3JBeOu6TrnKsObSQRCimGvrgvz/ed/Gc7+JCEqF4um7VmKgaEO5DTUmeks0vEYqhO1kdVToazvYeLBmno2ouy5iheSVC8XNtL6/6te3tNQgE19btWV5bPvsefSRC8XPNKqvtMFk1ON7ktMpK+ux79JEIxc/pKOkeIxQDZTJd8Iz7QvNJhOLneq6p19meg4AYNXVEhOaTCMXPzdIN94OCZnyjk13//Y+/SITiZ/LskQgFjfvIiovzSoTiZkYnLGAWPO8LnTFyei6JUNw8UPGaCAXONEKlA5/9j/+SCMVNL0KcCQUPEZpfIhQ3iVAoEKH5JUJxkwiFAhGaXyIUN4lQKBCh+SVCcZMIhQIRml8iFDeJUCgQofklQnHTixCP6IOHCM0vEYqbRCgciNDcEqH4mah0Z/sNAsPtqrrvv//xF4lQ/FzPdXjXWNCMO8yin1ciFD83ck2NZnsOAmLQ1NGO//7HXyRC8XM9dSE7/M88Vkz6FyxqNq9EKH6u7Zd167zM9h0snxcNW2UlfPY9+kiEYigL3QeL+6TbCq+DnlsiFE8TJV75ExhOR0WejM0vEYqp3iXZPXenA+H1rszrfhaRCMXVA1UfeO3P8nlRr8IgxYUkQnE1o6PG02z/wdKYPOkqx7KuC0mE4mvytCF7HP6H/32Z6LXf0AkL3C8mEYqvG1ZJlw/Ps30IX+dZvbOCkgxSXEwiFG+3Tju8CHFZjDq8a+xPJEIxdzpwccBMsq/zptE1T8X+SCIUc7cPddJ4ZELrVxk/6ur0UOt++xj/t0QI16waY4a+yOtdTUmffYtzSITwr78PWfL1K7yvopjl+/enEiGcumGVdWUzeHFx3uQ0yjwR+4pECH+4edphnaFFGTR5IvZViRD+172CLh8Gs30KnzNQ77zAbPmvSoTwZxPZCzmzvQqfYF8ozWz5r0uE8P97oKPzLgMYP2PU1WWOiapLkQjhv83qpMXk1t8ynaR6ytOwpUmE0FfuD/2Gj/tAjIxeokQIf2ciVdM9Uzp+wtXouiaL+0DLlQjh783IKjXUGzB+6H1u2ENDxVSG79myJUL4mYn3dYfifEbkfqwTxBlQMBIh/NTtjJLZC+/SLPwvinm8S7C7utJWhsmpQUmEcD4P3i/N7mP1vrIXDe+ml2AHfLeClAjhIiZydd3acViN8VnOdV1HXIIFLxHCRV3bPlb1+huPq57Yuq2wNlBoEiH8Ezf28yo2uhq53+k+0USTQVdXpWMlmBUfnkQIv2Ly9MK7PPsGgxong/fLL96UYUAihF91y/LOis5v5IxnH8dKMZFr3+iylFeSJTnMSIRwGa7vZmXlamo/2Hp1V2FMkavJyFavVdNRKqvNbf/twhAkQrhUd7JKn9bfYxTZu0XuND7epVc2qw2/bcBwJUIYiNMBjrmyLls3sp0IPNKfPGvYv1H7vKwjBh5GSyKEQZvIFnRSqevquitn8BzeGZL7rJHd1W2jruppgQXIoioRwjBNpAqqnjd1+/Co4WCgyWSZ94+838sdaOQ8qnfd1GWlwIz3VZAIoQnXd9La3M1oc296Q7us+nlDV62O7h+6su0nOY4j9/0G9/TL+bOuJmNHw+mv6Xd1f9dRu3GhyzPvMiuV1db099xNa2M7zfdhVSRCGCXXdg+VzuaVznmXcKWyqpXaL5ZV9C6tjqa/JptlkfnvIBFCRKMSIUQ0KhFCRKMSIUQ0KhFCRKMSIUQ0KhFCRKMSIUQ0KhFCRKMSIUQ0KhFCRKMSIUQ0KhFCRKMSIUQ0KhFCRKN+jwhJo0aedYMRV9GdgtoGXl239Ai9XpdY4ApxFd0t6XY0O5BDZOkRmjzUZfltICJG2rXUhWwDr6pbeoTkdFTkFb6IK2ey0tFwdhiHyfIjNH5Uu5LXls9GImI0XdvLq9p6nL4nJXSWHyENZDdKSvhsKCJG07X9kq76Bu5KewQQIen1rqakz4YiYjRdT9XUG88O4JAJJEJymkrv+G8sIkbPjVxTBh6MvRNMhPSky+wBgxYRV8IDpRtPs2M3fAKK0JucVk3pPb8NRsQouZWtqe28zY7d8AkoQh7jrupZ/41GxOiYPusaeSr2g+AipGf1zphHhhhpt49V77/MjlkzBBghadJv6GjXZ8MRMRJu5hpGRkn/TKARmp4N2Y0CAxcRo+heQVf959mxao6AI+QxeVTdyvx7ByCiQTNKnj3ODlKzBB8huRrd1ZXmsgwxMm7l6rofhL92kB8hRGjKQLclxg0hRsLtrIp3ZqZo+BFShDxGj7o6zRIiRKNmddIwM1H1d4QXoSmDG1VZ5gPRmMnKjbHpGb8j3Ah5uHaT9YYQDWiVmnKidAo0I/QIvWM3dEKIEEMzOQ1QNO5D/wszEZriXZrVc4esR40YoGu7hzo69y7BIhqgKeYiNGX8cbN6k2U/EJfuxm70bkL7YTZC7wxkX9d1ZGV4coa4FDNK5uq6NbRS4qJEIEJT3vTqdNU+KynJWRHiH7thlVRvdTUcmVuaY1EiEqEZk2cNH5q6LBVk7TPVA3E+M0qkCiqeN9VzzM8FW5RoRei/vGlkd3RZKSi5l+aNroh+bqe1ZRVUbXTkrNCZz69ENEI/cKWxI+eho/Z5XcXcsRJcrmGM3dg/1lGprstWRz3bkTuJ+m3nz4l4hH7mTe7I0bDf1f11U+3GheqVsoqlD09OC54lneQKOkJcVaff4ffv8j/f7erZha5aTd3edWU7jl7Hq3vW48cKRegzvP8jTF40cRFXW+8vs+90PPhGEQKAVYQIAYBRiBAAGIUIAYBRiBAAGIUIAYBRiBAAGIUIAYBRiBAAGIUIAYBRiBAAGIUIAYBRiBAAGIUIAYBRiBAAGIUIAYBRiBAAGIUIAYBBpP8AbKjliQldTr8AAAAASUVORK5CYII=;sketch=1;fillColor=#21C0A5;strokeColor=#006658;fontColor=#5C5C5C;" vertex="1" parent="WIyWlLk6GJQsqaUBKTNV-1">
          <mxGeometry x="268" y="260" width="47.77" height="40" as="geometry" />
        </mxCell>
        <mxCell id="mW-TfA6SUVQMe-zbk1Tz-2" value="" style="shape=image;verticalLabelPosition=bottom;verticalAlign=top;aspect=fixed;imageAspect=0;image=data:image/png,iVBORw0KGgoAAAANSUhEUgAAASEAAADyCAYAAAACwHMuAAAABGdBTUEAALGPC/xhBQAAAAlwSFlzAAAScwAAEnMBjCK5BwAAEiJJREFUeF7tnb9LI+njx79/xlkIdlYWpwQLIWA3ZSBBSKEQq6BFqqQLhBSpJKWIXRqLkCopbESwSCGCTYLdlNMlhQQhypD3Z6LZz+13b/ZjsmbmmTivF7xu79i9vZ1J5nXz43me+T8BABiECAGAUYgQABiFCAGAUYgQABiFCAGAUYgQABiFCAGAUYgQABiFCAGAUYgQABiFCAGAUYjQyjHxfPN+eNHEfdbrwNbQ+b6ORs/edr542+tt8/u2w3eDCK0E3sE3djS0H9W766jdaujyrKZiLi9r/0Bbe9/XRCqvk1JN9fOGt90d3T88ynEGcicE6btAhCLLi17trm4bdZ1kj5WcxmY3o82Z63+n9Vec3P5n2zencbKOlT6t6+q6K2fknSnBykKEooY70PChqctSQelUVpt+ByT+425WVrag4nlTPe8MifOj1YMIRYY3jfodLz55JXZ8Djb81A0r78WoI3swvX8EqwIRigSO7s8KSvgcWLi4a/sFXd45s30LUYcImWb8pNtKnsuuZbubV/X6Se5sN0N0IUImGdzoMpfVmt9BhEswq6PzG41muxuiCREyhdtV3QvQhu/Bg0tzxwvRWZcb1hGGCBnB0X3lOH6P2U25c6z63WC27yFqEKHQeVbvnHtAobub1+XD8+wzgChBhEJm0q/L8jtIMHDXUxeyuVMdOYhQmExsnoSZ9P2JmT37MCAqEKEQmfQvZO36HBwYmptZ72yIu9SRggiFhqPb0oHvgYFhmlXxmoGMUYIIhcJErw8XOrH8DgoM2+TphXoMHooMRCgUBrovZXkkHxW3vbMhHtlHBiIUBm5XxT2fgwGNuVVhAGNUIEJhYF/oiJnxkXIz15BDhSIBEQqcgexGSYlt/4MBzbhulXTV55IsChChoBl/zBHjflDEnM0pY+yieYhQwLh3ZW35HQRo3r2y7sezDwqMQYQC5U322SFLdUTWY9X7rMJoGiIUJONHXZ0yQDG6ZnXSYOEz0xChAGGAYvRl4KJ5iFBgPOu+csgN6ai7fagqS3wYhQgFhdtVdd/nS4+RM1F5nH1oYAIiFBROUyeMkl4Jt06bGs4+NggfIhQIL3Kua7IYJb0SbqRqunV4i6spiFAQuE+6Oj1kEftVcedQxcbT7MODsPkmEZp4B/5ArwNHQ8c26sj7M/QaZVlM01gpN1JlXT043ufn/7mGp/dnGA00idG8thWK0Jsm44FGzpPshxvdtppqNxq6mnpeV71SVrHkmcsruXegLWNmGJy4smZ8Ps8QtfI6mn6HPatnF7r88f2eftevb9Tre5EaDOS632uAZcQj5P3vYOzIeeiofV7WUepQW9xnwRi7sXcoK1fWZaujnu3I/QZnTNGM0ORZw35Hl5XC+1nN5m5GG97lDWcYiB+u72S842J69lRQ9bwj21ndsU4Ri9CbXqfxKZWUtg6IDuJcHiiZLanoxcgZrd6lWkQi5Mp1umqfeWc+XG4h/rGbVkn1VlfD8erMiItAhBz1zgvvi35x5oP4dafH0fp+SZcPq7Fom9kIubZuz3gZIGIg7uZVX4GXPRqL0MS50SUrDiIG63ZWJ+c3Gkb4KZqBCE302m+omDogQIhhuH2gdKkhO6KrSIYcIdcLUFPVLAt9IYarF6JKU/Yoejesw42Q01GRRb4QDZlRstKJ3KVZeBGaLnVaYpEvRKO+T9Z9jNSStiFF6Fm9szyzyhGj4E5e9QitJhlChN40vKsrveuzMxDRiFvZuu4H0RhdHXyEpi//sw44C0KMkjsHSkbk5Y8BR2j2CmS/nYCIRl3bn74K2/xlWaARmvQvlGadZcTIupW9kG34dCjACA10e5rx3XBEjIoZnVybnWMWXIQGN6qm/DYaEaOkdXajV4NjhwKK0JucVpl7QYgr4Np+WW3H3JOygCJk6yrrv8GIGD3TDXOz7YOJ0KijE8YFIa6Mm6cdvc4O37AJJEKvdzUlfTYUEaPpeqqunqFZ9gFEaKAeY4MQV8rpSoxXfTNPyZYfofGj2pW8tnw2FBGj6dpeXtWWmYmty4+Q01E1xfggxNUyI8vQMh9Lj9Ck31CaVyAjrpzruYYcA6dCS4/QqFVgsiriKrpTUNvAbaGlR2h4fuy/gYgYcY915cwO5BBZcoQmGjaOeX8Y4iq6nfciFP5NISKEiB8SIUQ0KhFCRKMSIUQ0KhFCRKMSIUQ0KhFCRKMSIUQ0KhFCRKMSIUQ0KhFCRKMSIUQ0KhFCRKMSIUQ0KhHCKLi5m9HW3oES+1klrcMPU8eyPNPZ/MyPf7Z+/LyV9X79gffvZbS54//74gpIhNCY21589g91VKrrqtXR/UNXtm1rNHD0Onr2PtUfX8zpjz/9vfvs/bzj/TpbTr+r3l1H7UZdxdyhErtprfv9tzC6EiEMz4ySuZKqZw2177pyHC8409hMpq8C/sqXcPrver/HNE5emIZ2V/ethuqVktIWLz+IvEQIg3R9x7vM2j/+ONu59s50Bs+zzywEJs8aemdKt+9nScdKeJdtG7wMIXoSIQzKrWzNC8+jhqPpmY5p3vTqTINUU3rP/8+LhiRCuFS3D5U+remy1dVwbOKVdp/hyvVi1D6v6SR7yP2jKEiEcBmuvd9kLqjeetQokvH5FS9Gg+lbewvczDYtEcKvur6XV7FxE9Ezn8+Ynhnd6Kp0rC3uF5mRCOFXTJxe6N55mX0Oq8yLhncXOtn3304MUCKEf+L6zoGsSlPOOPwvT3BM5NpNVVMHPEULUyKEi7q+V9Dlg4H39obFxFHvvMDlWVgSIVzE5PvlV4hjfYzx/HF5ZvnvB1yiRAjnMyOr1FBvsIo3n/8UV6OHCxVTjLoOVCKE85jMXcgez3Z3zHD7FzrihnVwEiH8TKvU9AIUpzOgX3H12m+oyKVZMBIh/L1xvAT7HW/epZkXIi7Nli8Rwt+5larrfjTbxfDO611NFnPPlisRQj83UmW1+9/4MfwfM5DdKstiEbXlSYTwV9f3jlVs2bN9C//CfVKbaR7Lkwjhr1pnN+Iq7BMGN6qm/PcfLigRwp/dTNXVi+mj+EVxH+pcli1DIoQ/XN8v6eo7T8dYOgP1GiUlfPYlLiARwh9aZ11vT8JCjLuqM37oaxIhfNc7C2rbUViGddV4kdPibOhLEiH86+8sT8O+wsRW+zTrs19xLokQJlJ12VyHfY1+XdZ+mu/gn0iEYu7udEzQE/eCvsps7NCG3z7G/y0Rirfr71MzSNDXmXxM6WAA4+ISoXibPOuK6alLYtxVlSdli0uEYuxuXnXGBS2Rge7P8tr029f4e4lQfE2eNmRzKbZEvEuyfoMlYReVCMXVjI4a3JBeOu6TrnKsObSQRCimGvrgvz/ed/Gc7+JCEqF4um7VmKgaEO5DTUmeks0vEYqhO1kdVToazvYeLBmno2ouy5iheSVC8XNtL6/6te3tNQgE19btWV5bPvsefSRC8XPNKqvtMFk1ON7ktMpK+ux79JEIxc/pKOkeIxQDZTJd8Iz7QvNJhOLneq6p19meg4AYNXVEhOaTCMXPzdIN94OCZnyjk13//Y+/SITiZ/LskQgFjfvIiovzSoTiZkYnLGAWPO8LnTFyei6JUNw8UPGaCAXONEKlA5/9j/+SCMVNL0KcCQUPEZpfIhQ3iVAoEKH5JUJxkwiFAhGaXyIUN4lQKBCh+SVCcZMIhQIRml8iFDeJUCgQofklQnHTixCP6IOHCM0vEYqbRCgciNDcEqH4mah0Z/sNAsPtqrrvv//xF4lQ/FzPdXjXWNCMO8yin1ciFD83ck2NZnsOAmLQ1NGO//7HXyRC8XM9dSE7/M88Vkz6FyxqNq9EKH6u7Zd167zM9h0snxcNW2UlfPY9+kiEYigL3QeL+6TbCq+DnlsiFE8TJV75ExhOR0WejM0vEYqp3iXZPXenA+H1rszrfhaRCMXVA1UfeO3P8nlRr8IgxYUkQnE1o6PG02z/wdKYPOkqx7KuC0mE4mvytCF7HP6H/32Z6LXf0AkL3C8mEYqvG1ZJlw/Ps30IX+dZvbOCkgxSXEwiFG+3Tju8CHFZjDq8a+xPJEIxdzpwccBMsq/zptE1T8X+SCIUc7cPddJ4ZELrVxk/6ur0UOt++xj/t0QI16waY4a+yOtdTUmffYtzSITwr78PWfL1K7yvopjl+/enEiGcumGVdWUzeHFx3uQ0yjwR+4pECH+4edphnaFFGTR5IvZViRD+172CLh8Gs30KnzNQ77zAbPmvSoTwZxPZCzmzvQqfYF8ozWz5r0uE8P97oKPzLgMYP2PU1WWOiapLkQjhv83qpMXk1t8ynaR6ytOwpUmE0FfuD/2Gj/tAjIxeokQIf2ciVdM9Uzp+wtXouiaL+0DLlQjh783IKjXUGzB+6H1u2ENDxVSG79myJUL4mYn3dYfifEbkfqwTxBlQMBIh/NTtjJLZC+/SLPwvinm8S7C7utJWhsmpQUmEcD4P3i/N7mP1vrIXDe+ml2AHfLeClAjhIiZydd3acViN8VnOdV1HXIIFLxHCRV3bPlb1+huPq57Yuq2wNlBoEiH8Ezf28yo2uhq53+k+0USTQVdXpWMlmBUfnkQIv2Ly9MK7PPsGgxong/fLL96UYUAihF91y/LOis5v5IxnH8dKMZFr3+iylFeSJTnMSIRwGa7vZmXlamo/2Hp1V2FMkavJyFavVdNRKqvNbf/twhAkQrhUd7JKn9bfYxTZu0XuND7epVc2qw2/bcBwJUIYiNMBjrmyLls3sp0IPNKfPGvYv1H7vKwjBh5GSyKEQZvIFnRSqevquitn8BzeGZL7rJHd1W2jruppgQXIoioRwjBNpAqqnjd1+/Co4WCgyWSZ94+838sdaOQ8qnfd1GWlwIz3VZAIoQnXd9La3M1oc296Q7us+nlDV62O7h+6su0nOY4j9/0G9/TL+bOuJmNHw+mv6Xd1f9dRu3GhyzPvMiuV1db099xNa2M7zfdhVSRCGCXXdg+VzuaVznmXcKWyqpXaL5ZV9C6tjqa/JptlkfnvIBFCRKMSIUQ0KhFCRKMSIUQ0KhFCRKMSIUQ0KhFCRKMSIUQ0KhFCRKMSIUQ0KhFCRKMSIUQ0KhFCRKMSIUQ0KhFCRKN+jwhJo0aedYMRV9GdgtoGXl239Ai9XpdY4ApxFd0t6XY0O5BDZOkRmjzUZfltICJG2rXUhWwDr6pbeoTkdFTkFb6IK2ey0tFwdhiHyfIjNH5Uu5LXls9GImI0XdvLq9p6nL4nJXSWHyENZDdKSvhsKCJG07X9kq76Bu5KewQQIen1rqakz4YiYjRdT9XUG88O4JAJJEJymkrv+G8sIkbPjVxTBh6MvRNMhPSky+wBgxYRV8IDpRtPs2M3fAKK0JucVk3pPb8NRsQouZWtqe28zY7d8AkoQh7jrupZ/41GxOiYPusaeSr2g+AipGf1zphHhhhpt49V77/MjlkzBBghadJv6GjXZ8MRMRJu5hpGRkn/TKARmp4N2Y0CAxcRo+heQVf959mxao6AI+QxeVTdyvx7ByCiQTNKnj3ODlKzBB8huRrd1ZXmsgwxMm7l6rofhL92kB8hRGjKQLclxg0hRsLtrIp3ZqZo+BFShDxGj7o6zRIiRKNmddIwM1H1d4QXoSmDG1VZ5gPRmMnKjbHpGb8j3Ah5uHaT9YYQDWiVmnKidAo0I/QIvWM3dEKIEEMzOQ1QNO5D/wszEZriXZrVc4esR40YoGu7hzo69y7BIhqgKeYiNGX8cbN6k2U/EJfuxm70bkL7YTZC7wxkX9d1ZGV4coa4FDNK5uq6NbRS4qJEIEJT3vTqdNU+KynJWRHiH7thlVRvdTUcmVuaY1EiEqEZk2cNH5q6LBVk7TPVA3E+M0qkCiqeN9VzzM8FW5RoRei/vGlkd3RZKSi5l+aNroh+bqe1ZRVUbXTkrNCZz69ENEI/cKWxI+eho/Z5XcXcsRJcrmGM3dg/1lGprstWRz3bkTuJ+m3nz4l4hH7mTe7I0bDf1f11U+3GheqVsoqlD09OC54lneQKOkJcVaff4ffv8j/f7erZha5aTd3edWU7jl7Hq3vW48cKRegzvP8jTF40cRFXW+8vs+90PPhGEQKAVYQIAYBRiBAAGIUIAYBRiBAAGIUIAYBRiBAAGIUIAYBRiBAAGIUIAYBRiBAAGIUIAYBRiBAAGIUIAYBRiBAAGIUIAYBRiBAAGIUIAYBBpP8AbKjliQldTr8AAAAASUVORK5CYII=;sketch=1;fillColor=#21C0A5;strokeColor=#006658;fontColor=#5C5C5C;" vertex="1" parent="WIyWlLk6GJQsqaUBKTNV-1">
          <mxGeometry x="201.45" y="260" width="47.77" height="40" as="geometry" />
        </mxCell>
        <mxCell id="mW-TfA6SUVQMe-zbk1Tz-3" value="" style="shape=image;verticalLabelPosition=bottom;verticalAlign=top;aspect=fixed;imageAspect=0;image=data:image/png,iVBORw0KGgoAAAANSUhEUgAAASEAAADyCAYAAAACwHMuAAAABGdBTUEAALGPC/xhBQAAAAlwSFlzAAAScwAAEnMBjCK5BwAAEiJJREFUeF7tnb9LI+njx79/xlkIdlYWpwQLIWA3ZSBBSKEQq6BFqqQLhBSpJKWIXRqLkCopbESwSCGCTYLdlNMlhQQhypD3Z6LZz+13b/ZjsmbmmTivF7xu79i9vZ1J5nXz43me+T8BABiECAGAUYgQABiFCAGAUYgQABiFCAGAUYgQABiFCAGAUYgQABiFCAGAUYgQABiFCAGAUYjQyjHxfPN+eNHEfdbrwNbQ+b6ORs/edr542+tt8/u2w3eDCK0E3sE3djS0H9W766jdaujyrKZiLi9r/0Bbe9/XRCqvk1JN9fOGt90d3T88ynEGcicE6btAhCLLi17trm4bdZ1kj5WcxmY3o82Z63+n9Vec3P5n2zencbKOlT6t6+q6K2fknSnBykKEooY70PChqctSQelUVpt+ByT+425WVrag4nlTPe8MifOj1YMIRYY3jfodLz55JXZ8Djb81A0r78WoI3swvX8EqwIRigSO7s8KSvgcWLi4a/sFXd45s30LUYcImWb8pNtKnsuuZbubV/X6Se5sN0N0IUImGdzoMpfVmt9BhEswq6PzG41muxuiCREyhdtV3QvQhu/Bg0tzxwvRWZcb1hGGCBnB0X3lOH6P2U25c6z63WC27yFqEKHQeVbvnHtAobub1+XD8+wzgChBhEJm0q/L8jtIMHDXUxeyuVMdOYhQmExsnoSZ9P2JmT37MCAqEKEQmfQvZO36HBwYmptZ72yIu9SRggiFhqPb0oHvgYFhmlXxmoGMUYIIhcJErw8XOrH8DgoM2+TphXoMHooMRCgUBrovZXkkHxW3vbMhHtlHBiIUBm5XxT2fgwGNuVVhAGNUIEJhYF/oiJnxkXIz15BDhSIBEQqcgexGSYlt/4MBzbhulXTV55IsChChoBl/zBHjflDEnM0pY+yieYhQwLh3ZW35HQRo3r2y7sezDwqMQYQC5U322SFLdUTWY9X7rMJoGiIUJONHXZ0yQDG6ZnXSYOEz0xChAGGAYvRl4KJ5iFBgPOu+csgN6ai7fagqS3wYhQgFhdtVdd/nS4+RM1F5nH1oYAIiFBROUyeMkl4Jt06bGs4+NggfIhQIL3Kua7IYJb0SbqRqunV4i6spiFAQuE+6Oj1kEftVcedQxcbT7MODsPkmEZp4B/5ArwNHQ8c26sj7M/QaZVlM01gpN1JlXT043ufn/7mGp/dnGA00idG8thWK0Jsm44FGzpPshxvdtppqNxq6mnpeV71SVrHkmcsruXegLWNmGJy4smZ8Ps8QtfI6mn6HPatnF7r88f2eftevb9Tre5EaDOS632uAZcQj5P3vYOzIeeiofV7WUepQW9xnwRi7sXcoK1fWZaujnu3I/QZnTNGM0ORZw35Hl5XC+1nN5m5GG97lDWcYiB+u72S842J69lRQ9bwj21ndsU4Ri9CbXqfxKZWUtg6IDuJcHiiZLanoxcgZrd6lWkQi5Mp1umqfeWc+XG4h/rGbVkn1VlfD8erMiItAhBz1zgvvi35x5oP4dafH0fp+SZcPq7Fom9kIubZuz3gZIGIg7uZVX4GXPRqL0MS50SUrDiIG63ZWJ+c3Gkb4KZqBCE302m+omDogQIhhuH2gdKkhO6KrSIYcIdcLUFPVLAt9IYarF6JKU/Yoejesw42Q01GRRb4QDZlRstKJ3KVZeBGaLnVaYpEvRKO+T9Z9jNSStiFF6Fm9szyzyhGj4E5e9QitJhlChN40vKsrveuzMxDRiFvZuu4H0RhdHXyEpi//sw44C0KMkjsHSkbk5Y8BR2j2CmS/nYCIRl3bn74K2/xlWaARmvQvlGadZcTIupW9kG34dCjACA10e5rx3XBEjIoZnVybnWMWXIQGN6qm/DYaEaOkdXajV4NjhwKK0JucVpl7QYgr4Np+WW3H3JOygCJk6yrrv8GIGD3TDXOz7YOJ0KijE8YFIa6Mm6cdvc4O37AJJEKvdzUlfTYUEaPpeqqunqFZ9gFEaKAeY4MQV8rpSoxXfTNPyZYfofGj2pW8tnw2FBGj6dpeXtWWmYmty4+Q01E1xfggxNUyI8vQMh9Lj9Ck31CaVyAjrpzruYYcA6dCS4/QqFVgsiriKrpTUNvAbaGlR2h4fuy/gYgYcY915cwO5BBZcoQmGjaOeX8Y4iq6nfciFP5NISKEiB8SIUQ0KhFCRKMSIUQ0KhFCRKMSIUQ0KhFCRKMSIUQ0KhFCRKMSIUQ0KhFCRKMSIUQ0KhFCRKMSIUQ0KhHCKLi5m9HW3oES+1klrcMPU8eyPNPZ/MyPf7Z+/LyV9X79gffvZbS54//74gpIhNCY21589g91VKrrqtXR/UNXtm1rNHD0Onr2PtUfX8zpjz/9vfvs/bzj/TpbTr+r3l1H7UZdxdyhErtprfv9tzC6EiEMz4ySuZKqZw2177pyHC8409hMpq8C/sqXcPrver/HNE5emIZ2V/ethuqVktIWLz+IvEQIg3R9x7vM2j/+ONu59s50Bs+zzywEJs8aemdKt+9nScdKeJdtG7wMIXoSIQzKrWzNC8+jhqPpmY5p3vTqTINUU3rP/8+LhiRCuFS3D5U+remy1dVwbOKVdp/hyvVi1D6v6SR7yP2jKEiEcBmuvd9kLqjeetQokvH5FS9Gg+lbewvczDYtEcKvur6XV7FxE9Ezn8+Ynhnd6Kp0rC3uF5mRCOFXTJxe6N55mX0Oq8yLhncXOtn3304MUCKEf+L6zoGsSlPOOPwvT3BM5NpNVVMHPEULUyKEi7q+V9Dlg4H39obFxFHvvMDlWVgSIVzE5PvlV4hjfYzx/HF5ZvnvB1yiRAjnMyOr1FBvsIo3n/8UV6OHCxVTjLoOVCKE85jMXcgez3Z3zHD7FzrihnVwEiH8TKvU9AIUpzOgX3H12m+oyKVZMBIh/L1xvAT7HW/epZkXIi7Nli8Rwt+5larrfjTbxfDO611NFnPPlisRQj83UmW1+9/4MfwfM5DdKstiEbXlSYTwV9f3jlVs2bN9C//CfVKbaR7Lkwjhr1pnN+Iq7BMGN6qm/PcfLigRwp/dTNXVi+mj+EVxH+pcli1DIoQ/XN8v6eo7T8dYOgP1GiUlfPYlLiARwh9aZ11vT8JCjLuqM37oaxIhfNc7C2rbUViGddV4kdPibOhLEiH86+8sT8O+wsRW+zTrs19xLokQJlJ12VyHfY1+XdZ+mu/gn0iEYu7udEzQE/eCvsps7NCG3z7G/y0Rirfr71MzSNDXmXxM6WAA4+ISoXibPOuK6alLYtxVlSdli0uEYuxuXnXGBS2Rge7P8tr029f4e4lQfE2eNmRzKbZEvEuyfoMlYReVCMXVjI4a3JBeOu6TrnKsObSQRCimGvrgvz/ed/Gc7+JCEqF4um7VmKgaEO5DTUmeks0vEYqhO1kdVToazvYeLBmno2ouy5iheSVC8XNtL6/6te3tNQgE19btWV5bPvsefSRC8XPNKqvtMFk1ON7ktMpK+ux79JEIxc/pKOkeIxQDZTJd8Iz7QvNJhOLneq6p19meg4AYNXVEhOaTCMXPzdIN94OCZnyjk13//Y+/SITiZ/LskQgFjfvIiovzSoTiZkYnLGAWPO8LnTFyei6JUNw8UPGaCAXONEKlA5/9j/+SCMVNL0KcCQUPEZpfIhQ3iVAoEKH5JUJxkwiFAhGaXyIUN4lQKBCh+SVCcZMIhQIRml8iFDeJUCgQofklQnHTixCP6IOHCM0vEYqbRCgciNDcEqH4mah0Z/sNAsPtqrrvv//xF4lQ/FzPdXjXWNCMO8yin1ciFD83ck2NZnsOAmLQ1NGO//7HXyRC8XM9dSE7/M88Vkz6FyxqNq9EKH6u7Zd167zM9h0snxcNW2UlfPY9+kiEYigL3QeL+6TbCq+DnlsiFE8TJV75ExhOR0WejM0vEYqp3iXZPXenA+H1rszrfhaRCMXVA1UfeO3P8nlRr8IgxYUkQnE1o6PG02z/wdKYPOkqx7KuC0mE4mvytCF7HP6H/32Z6LXf0AkL3C8mEYqvG1ZJlw/Ps30IX+dZvbOCkgxSXEwiFG+3Tju8CHFZjDq8a+xPJEIxdzpwccBMsq/zptE1T8X+SCIUc7cPddJ4ZELrVxk/6ur0UOt++xj/t0QI16waY4a+yOtdTUmffYtzSITwr78PWfL1K7yvopjl+/enEiGcumGVdWUzeHFx3uQ0yjwR+4pECH+4edphnaFFGTR5IvZViRD+172CLh8Gs30KnzNQ77zAbPmvSoTwZxPZCzmzvQqfYF8ozWz5r0uE8P97oKPzLgMYP2PU1WWOiapLkQjhv83qpMXk1t8ynaR6ytOwpUmE0FfuD/2Gj/tAjIxeokQIf2ciVdM9Uzp+wtXouiaL+0DLlQjh783IKjXUGzB+6H1u2ENDxVSG79myJUL4mYn3dYfifEbkfqwTxBlQMBIh/NTtjJLZC+/SLPwvinm8S7C7utJWhsmpQUmEcD4P3i/N7mP1vrIXDe+ml2AHfLeClAjhIiZydd3acViN8VnOdV1HXIIFLxHCRV3bPlb1+huPq57Yuq2wNlBoEiH8Ezf28yo2uhq53+k+0USTQVdXpWMlmBUfnkQIv2Ly9MK7PPsGgxong/fLL96UYUAihF91y/LOis5v5IxnH8dKMZFr3+iylFeSJTnMSIRwGa7vZmXlamo/2Hp1V2FMkavJyFavVdNRKqvNbf/twhAkQrhUd7JKn9bfYxTZu0XuND7epVc2qw2/bcBwJUIYiNMBjrmyLls3sp0IPNKfPGvYv1H7vKwjBh5GSyKEQZvIFnRSqevquitn8BzeGZL7rJHd1W2jruppgQXIoioRwjBNpAqqnjd1+/Co4WCgyWSZ94+838sdaOQ8qnfd1GWlwIz3VZAIoQnXd9La3M1oc296Q7us+nlDV62O7h+6su0nOY4j9/0G9/TL+bOuJmNHw+mv6Xd1f9dRu3GhyzPvMiuV1db099xNa2M7zfdhVSRCGCXXdg+VzuaVznmXcKWyqpXaL5ZV9C6tjqa/JptlkfnvIBFCRKMSIUQ0KhFCRKMSIUQ0KhFCRKMSIUQ0KhFCRKMSIUQ0KhFCRKMSIUQ0KhFCRKMSIUQ0KhFCRKMSIUQ0KhFCRKN+jwhJo0aedYMRV9GdgtoGXl239Ai9XpdY4ApxFd0t6XY0O5BDZOkRmjzUZfltICJG2rXUhWwDr6pbeoTkdFTkFb6IK2ey0tFwdhiHyfIjNH5Uu5LXls9GImI0XdvLq9p6nL4nJXSWHyENZDdKSvhsKCJG07X9kq76Bu5KewQQIen1rqakz4YiYjRdT9XUG88O4JAJJEJymkrv+G8sIkbPjVxTBh6MvRNMhPSky+wBgxYRV8IDpRtPs2M3fAKK0JucVk3pPb8NRsQouZWtqe28zY7d8AkoQh7jrupZ/41GxOiYPusaeSr2g+AipGf1zphHhhhpt49V77/MjlkzBBghadJv6GjXZ8MRMRJu5hpGRkn/TKARmp4N2Y0CAxcRo+heQVf959mxao6AI+QxeVTdyvx7ByCiQTNKnj3ODlKzBB8huRrd1ZXmsgwxMm7l6rofhL92kB8hRGjKQLclxg0hRsLtrIp3ZqZo+BFShDxGj7o6zRIiRKNmddIwM1H1d4QXoSmDG1VZ5gPRmMnKjbHpGb8j3Ah5uHaT9YYQDWiVmnKidAo0I/QIvWM3dEKIEEMzOQ1QNO5D/wszEZriXZrVc4esR40YoGu7hzo69y7BIhqgKeYiNGX8cbN6k2U/EJfuxm70bkL7YTZC7wxkX9d1ZGV4coa4FDNK5uq6NbRS4qJEIEJT3vTqdNU+KynJWRHiH7thlVRvdTUcmVuaY1EiEqEZk2cNH5q6LBVk7TPVA3E+M0qkCiqeN9VzzM8FW5RoRei/vGlkd3RZKSi5l+aNroh+bqe1ZRVUbXTkrNCZz69ENEI/cKWxI+eho/Z5XcXcsRJcrmGM3dg/1lGprstWRz3bkTuJ+m3nz4l4hH7mTe7I0bDf1f11U+3GheqVsoqlD09OC54lneQKOkJcVaff4ffv8j/f7erZha5aTd3edWU7jl7Hq3vW48cKRegzvP8jTF40cRFXW+8vs+90PPhGEQKAVYQIAYBRiBAAGIUIAYBRiBAAGIUIAYBRiBAAGIUIAYBRiBAAGIUIAYBRiBAAGIUIAYBRiBAAGIUIAYBRiBAAGIUIAYBRiBAAGIUIAYBBpP8AbKjliQldTr8AAAAASUVORK5CYII=;sketch=1;fillColor=#21C0A5;strokeColor=#006658;fontColor=#5C5C5C;" vertex="1" parent="WIyWlLk6GJQsqaUBKTNV-1">
          <mxGeometry x="133" y="260" width="47.77" height="40" as="geometry" />
        </mxCell>
        <mxCell id="mW-TfA6SUVQMe-zbk1Tz-5" value="" style="endArrow=none;dashed=1;html=1;rounded=1;sketch=1;curved=0;strokeColor=#006658;fontColor=#5C5C5C;entryX=0.5;entryY=1;entryDx=0;entryDy=0;" edge="1" parent="WIyWlLk6GJQsqaUBKTNV-1" source="mW-TfA6SUVQMe-zbk1Tz-0" target="mW-TfA6SUVQMe-zbk1Tz-3">
          <mxGeometry width="50" height="50" relative="1" as="geometry">
            <mxPoint x="50" y="350" as="sourcePoint" />
            <mxPoint x="100" y="300" as="targetPoint" />
          </mxGeometry>
        </mxCell>
        <mxCell id="mW-TfA6SUVQMe-zbk1Tz-8" value="" style="endArrow=none;dashed=1;html=1;rounded=1;sketch=1;curved=0;strokeColor=#006658;fontColor=#5C5C5C;entryX=0.5;entryY=1;entryDx=0;entryDy=0;" edge="1" parent="WIyWlLk6GJQsqaUBKTNV-1" source="mW-TfA6SUVQMe-zbk1Tz-0" target="mW-TfA6SUVQMe-zbk1Tz-1">
          <mxGeometry width="50" height="50" relative="1" as="geometry">
            <mxPoint x="287.68000000000006" y="340.86342229199386" as="sourcePoint" />
            <mxPoint x="330" y="320" as="targetPoint" />
          </mxGeometry>
        </mxCell>
        <mxCell id="mW-TfA6SUVQMe-zbk1Tz-9" value="" style="endArrow=none;dashed=1;html=1;rounded=1;sketch=1;curved=0;strokeColor=#006658;fontColor=#5C5C5C;entryX=0.5;entryY=1;entryDx=0;entryDy=0;" edge="1" parent="WIyWlLk6GJQsqaUBKTNV-1" source="mW-TfA6SUVQMe-zbk1Tz-0" target="mW-TfA6SUVQMe-zbk1Tz-2">
          <mxGeometry width="50" height="50" relative="1" as="geometry">
            <mxPoint x="299.9852631578947" y="350" as="sourcePoint" />
            <mxPoint x="220" y="320" as="targetPoint" />
          </mxGeometry>
        </mxCell>
        <mxCell id="mW-TfA6SUVQMe-zbk1Tz-14" style="edgeStyle=orthogonalEdgeStyle;curved=0;rounded=1;sketch=1;orthogonalLoop=1;jettySize=auto;html=1;exitX=0;exitY=0.5;exitDx=0;exitDy=0;entryX=0.5;entryY=0;entryDx=0;entryDy=0;fontFamily=Verdana;fontColor=#5C5C5C;strokeColor=#006658;fillColor=#21C0A5;startArrow=classic;startFill=1;endArrow=classic;endFill=1;" edge="1" parent="WIyWlLk6GJQsqaUBKTNV-1" source="mW-TfA6SUVQMe-zbk1Tz-12" target="mW-TfA6SUVQMe-zbk1Tz-4">
          <mxGeometry relative="1" as="geometry" />
        </mxCell>
        <mxCell id="mW-TfA6SUVQMe-zbk1Tz-22" value="&lt;font style=&quot;font-size: 15px&quot;&gt;Pictures of certain &lt;br&gt;part to validate&lt;/font&gt;" style="edgeLabel;html=1;align=center;verticalAlign=middle;resizable=0;points=[];fontSize=14;fontFamily=Verdana;fontColor=#5C5C5C;" vertex="1" connectable="0" parent="mW-TfA6SUVQMe-zbk1Tz-14">
          <mxGeometry x="-0.0114" y="-2" relative="1" as="geometry">
            <mxPoint as="offset" />
          </mxGeometry>
        </mxCell>
        <mxCell id="mW-TfA6SUVQMe-zbk1Tz-17" style="edgeStyle=orthogonalEdgeStyle;curved=0;rounded=1;sketch=1;orthogonalLoop=1;jettySize=auto;html=1;entryX=0.5;entryY=0;entryDx=0;entryDy=0;entryPerimeter=0;fontFamily=Helvetica;fontColor=#5C5C5C;startArrow=classic;startFill=1;endArrow=classic;endFill=1;strokeColor=#006658;fillColor=#21C0A5;" edge="1" parent="WIyWlLk6GJQsqaUBKTNV-1" source="mW-TfA6SUVQMe-zbk1Tz-12" target="mW-TfA6SUVQMe-zbk1Tz-16">
          <mxGeometry relative="1" as="geometry" />
        </mxCell>
        <mxCell id="mW-TfA6SUVQMe-zbk1Tz-18" value="&lt;font style=&quot;font-size: 15px&quot;&gt;Sending&lt;br&gt;pictures&lt;br&gt;to AI&lt;/font&gt;" style="edgeStyle=orthogonalEdgeStyle;curved=0;rounded=1;sketch=1;orthogonalLoop=1;jettySize=auto;html=1;fontFamily=Helvetica;fontColor=#5C5C5C;startArrow=none;startFill=0;endArrow=classic;endFill=1;strokeColor=#006658;fillColor=#21C0A5;entryX=0.094;entryY=0.502;entryDx=0;entryDy=0;entryPerimeter=0;exitX=0.434;exitY=-0.04;exitDx=0;exitDy=0;exitPerimeter=0;" edge="1" parent="WIyWlLk6GJQsqaUBKTNV-1" source="mW-TfA6SUVQMe-zbk1Tz-12" target="mW-TfA6SUVQMe-zbk1Tz-15">
          <mxGeometry x="0.45" y="-34" relative="1" as="geometry">
            <Array as="points">
              <mxPoint x="658" y="287" />
              <mxPoint x="658" y="146" />
            </Array>
            <mxPoint y="1" as="offset" />
          </mxGeometry>
        </mxCell>
        <mxCell id="mW-TfA6SUVQMe-zbk1Tz-12" value="&lt;h2&gt;&lt;font face=&quot;Verdana&quot;&gt;&lt;i&gt;I / O&lt;br&gt;Cluster&lt;/i&gt;&lt;/font&gt;&lt;/h2&gt;" style="rounded=0;whiteSpace=wrap;html=1;sketch=1;fontColor=#5C5C5C;strokeColor=#006658;fillColor=#21C0A5;rotation=90;" vertex="1" parent="WIyWlLk6GJQsqaUBKTNV-1">
          <mxGeometry x="440" y="250" width="280" height="110" as="geometry" />
        </mxCell>
        <mxCell id="mW-TfA6SUVQMe-zbk1Tz-20" value="AI results" style="edgeStyle=orthogonalEdgeStyle;curved=0;rounded=1;sketch=1;orthogonalLoop=1;jettySize=auto;html=1;entryX=0.406;entryY=0.027;entryDx=0;entryDy=0;entryPerimeter=0;fontFamily=Verdana;fontSize=15;fontColor=#5C5C5C;startArrow=none;startFill=0;endArrow=classic;endFill=1;strokeColor=#006658;fillColor=#21C0A5;exitX=0.493;exitY=0.95;exitDx=0;exitDy=0;exitPerimeter=0;" edge="1" parent="WIyWlLk6GJQsqaUBKTNV-1" source="mW-TfA6SUVQMe-zbk1Tz-15">
          <mxGeometry relative="1" as="geometry">
            <mxPoint x="879.3200000000002" y="381.6199999999999" as="targetPoint" />
          </mxGeometry>
        </mxCell>
        <mxCell id="mW-TfA6SUVQMe-zbk1Tz-15" value="&lt;b&gt;&lt;font style=&quot;font-size: 15px&quot;&gt;Azure AI &lt;br&gt;(pretrained model)&lt;/font&gt;&lt;/b&gt;" style="ellipse;shape=cloud;whiteSpace=wrap;html=1;align=center;rounded=0;sketch=1;fontFamily=Verdana;strokeColor=#6c8ebf;fillColor=#dae8fc;" vertex="1" parent="WIyWlLk6GJQsqaUBKTNV-1">
          <mxGeometry x="730" y="20" width="300" height="240" as="geometry" />
        </mxCell>
        <mxCell id="mW-TfA6SUVQMe-zbk1Tz-16" value="&lt;b&gt;&lt;i&gt;PICS (picture storage)&lt;/i&gt;&lt;/b&gt;" style="shape=cylinder3;whiteSpace=wrap;html=1;boundedLbl=1;backgroundOutline=1;size=15;rounded=0;sketch=1;fontFamily=Verdana;fontColor=#5C5C5C;strokeColor=#006658;fillColor=#21C0A5;" vertex="1" parent="WIyWlLk6GJQsqaUBKTNV-1">
          <mxGeometry x="545" y="500" width="70" height="90" as="geometry" />
        </mxCell>
        <mxCell id="mW-TfA6SUVQMe-zbk1Tz-25" style="edgeStyle=orthogonalEdgeStyle;curved=0;rounded=1;sketch=1;orthogonalLoop=1;jettySize=auto;html=1;entryX=0.5;entryY=0;entryDx=0;entryDy=0;fontFamily=Verdana;fontSize=15;fontColor=#5C5C5C;startArrow=none;startFill=0;endArrow=classic;endFill=1;strokeColor=#006658;fillColor=#21C0A5;" edge="1" parent="WIyWlLk6GJQsqaUBKTNV-1" source="mW-TfA6SUVQMe-zbk1Tz-21" target="mW-TfA6SUVQMe-zbk1Tz-23">
          <mxGeometry relative="1" as="geometry" />
        </mxCell>
        <mxCell id="mW-TfA6SUVQMe-zbk1Tz-27" value="OK" style="edgeLabel;html=1;align=center;verticalAlign=middle;resizable=0;points=[];fontSize=15;fontFamily=Verdana;fontColor=#5C5C5C;" vertex="1" connectable="0" parent="mW-TfA6SUVQMe-zbk1Tz-25">
          <mxGeometry x="-0.0076" relative="1" as="geometry">
            <mxPoint as="offset" />
          </mxGeometry>
        </mxCell>
        <mxCell id="mW-TfA6SUVQMe-zbk1Tz-26" style="edgeStyle=orthogonalEdgeStyle;curved=0;rounded=1;sketch=1;orthogonalLoop=1;jettySize=auto;html=1;entryX=0.5;entryY=0;entryDx=0;entryDy=0;fontFamily=Verdana;fontSize=15;fontColor=#5C5C5C;startArrow=none;startFill=0;endArrow=classic;endFill=1;strokeColor=#006658;fillColor=#21C0A5;" edge="1" parent="WIyWlLk6GJQsqaUBKTNV-1" source="mW-TfA6SUVQMe-zbk1Tz-21" target="mW-TfA6SUVQMe-zbk1Tz-24">
          <mxGeometry relative="1" as="geometry" />
        </mxCell>
        <mxCell id="mW-TfA6SUVQMe-zbk1Tz-28" value="NOK" style="edgeLabel;html=1;align=center;verticalAlign=middle;resizable=0;points=[];fontSize=15;fontFamily=Verdana;fontColor=#5C5C5C;" vertex="1" connectable="0" parent="mW-TfA6SUVQMe-zbk1Tz-26">
          <mxGeometry x="0.3683" relative="1" as="geometry">
            <mxPoint as="offset" />
          </mxGeometry>
        </mxCell>
        <mxCell id="mW-TfA6SUVQMe-zbk1Tz-21" value="&lt;b&gt;&lt;font style=&quot;font-size: 15px&quot;&gt;IPSQ&lt;/font&gt;&lt;/b&gt;" style="rhombus;whiteSpace=wrap;html=1;rounded=0;sketch=1;fontFamily=Verdana;fontSize=13;fontColor=#5C5C5C;strokeColor=#006658;fillColor=#21C0A5;" vertex="1" parent="WIyWlLk6GJQsqaUBKTNV-1">
          <mxGeometry x="825" y="380" width="110" height="110" as="geometry" />
        </mxCell>
        <mxCell id="mW-TfA6SUVQMe-zbk1Tz-23" value="Part is validated as OK" style="rounded=1;whiteSpace=wrap;html=1;sketch=1;fontFamily=Verdana;fontSize=15;strokeColor=#d6b656;fillColor=#fff2cc;" vertex="1" parent="WIyWlLk6GJQsqaUBKTNV-1">
          <mxGeometry x="690" y="570" width="120" height="60" as="geometry" />
        </mxCell>
        <mxCell id="mW-TfA6SUVQMe-zbk1Tz-24" value="Part is validated as NOT OK" style="rounded=1;whiteSpace=wrap;html=1;sketch=1;fontFamily=Verdana;fontSize=15;strokeColor=#b85450;fillColor=#f8cecc;" vertex="1" parent="WIyWlLk6GJQsqaUBKTNV-1">
          <mxGeometry x="990" y="560" width="120" height="60" as="geometry" />
        </mxCell>
      </root>
    </mxGraphModel>
  </diagram>
</mxfile>
